# xmcd
#
# Track frame offsets:
#	150
#	13436
#	27866
#	45721
#	65880
#	80678
#	94397
#	106180
#	125861
#	142148
#	160379
#	177979
#	193024
#	206286
#	219515
#
# Disc length: 3157 seconds
#
# Revision: 0
# Processed by: cddbd v1.5.2PL0 Copyright (c) Steve Scherf et al.
# Submitted via: audiograbber 1.83.01
#
DISCID=e80c530f
DTITLE=Bellamy Brothers - The Lost Tracks
DYEAR=2006
DGENRE=Country
TTITLE0=Slippin' Away
TTITLE1=They Could Put Me In Jail
TTITLE2=Spiders And Snakes
TTITLE3=Livin' In The West
TTITLE4=Inside Of My Guitar
TTITLE5=Lovin' On
TTITLE6=Don't Give A Rip
TTITLE7=She Don't Know She's Perfect
TTITLE8=Crossfire
TTITLE9=Satin Sheets
TTITLE10=Let's Fall In Love Again
TTITLE11=When The Music Meant Everything
TTITLE12=Let's Rodeo
TTITLE13=Hillbilly Hell
TTITLE14=Too Much Is Not Enough (w. The Forrester Sisters)
EXTD=cse1
EXTT0=
EXTT1=
EXTT2=
EXTT3=
EXTT4=
EXTT5=
EXTT6=
EXTT7=
EXTT8=
EXTT9=
EXTT10=
EXTT11=
EXTT12=
EXTT13=
EXTT14=
PLAYORDER=
